<svg xmlns="http://www.w3.org/2000/svg" width="19.246" height="23.651" viewBox="0 0 19.246 23.651">
  <g id="Group_1577" data-name="Group 1577" transform="translate(-1303.254 -2251.2)">
    <path id="Path_10983" data-name="Path 10983" d="M1321.89,2259.27a5.348,5.348,0,0,0-2.53,4.51,5.2,5.2,0,0,0,3.14,4.82,12.185,12.185,0,0,1-1.64,3.36c-.98,1.44-2.04,2.89-3.61,2.89s-2.08-.93-3.9-.93-2.33.87-3.88.93-2.73-1.55-3.74-2.99c-2.01-2.94-3.58-8.28-1.48-11.92a5.747,5.747,0,0,1,4.86-2.96c1.54-.03,3,1.03,3.92,1.03s2.65-1.27,4.52-1.08A5.512,5.512,0,0,1,1321.89,2259.27Z" fill="#000b13"/>
    <path id="Path_10984" data-name="Path 10984" d="M1317.59,2251.2a5.273,5.273,0,0,1-1.2,3.79,4.407,4.407,0,0,1-3.52,1.66,5.027,5.027,0,0,1,1.24-3.65A5.479,5.479,0,0,1,1317.59,2251.2Z" fill="#000b13"/>
  </g>
</svg>
