<svg xmlns="http://www.w3.org/2000/svg" width="22.76" height="22.79" viewBox="0 0 22.76 22.79">
  <g id="Group_1578" data-name="Group 1578" transform="translate(-1037.62 -2252.1)">
    <path id="Path_10977" data-name="Path 10977" d="M1043.31,2263.49a5.69,5.69,0,1,1,5.69,5.7A5.7,5.7,0,0,1,1043.31,2263.49Zm2,0a3.695,3.695,0,1,0,3.69-3.7A3.7,3.7,0,0,0,1045.31,2263.49Z" fill="#000b13" fill-rule="evenodd"/>
    <path id="Path_10978" data-name="Path 10978" d="M1054.69,2257.79a.95.95,0,1,0,0-1.9.95.95,0,0,0,0,1.9Z" fill="#000b13"/>
    <path id="Path_10979" data-name="Path 10979" d="M1044.31,2252.17c1.21-.06,1.6-.07,4.69-.07s3.48.01,4.69.07a8.22,8.22,0,0,1,2.76.53,5.658,5.658,0,0,1,2.02,1.31,5.573,5.573,0,0,1,1.31,2.02,8.478,8.478,0,0,1,.53,2.76c.05,1.22.07,1.61.07,4.7s-.02,3.49-.07,4.7a8.6,8.6,0,0,1-.53,2.77,5.849,5.849,0,0,1-3.33,3.33,8.477,8.477,0,0,1-2.76.53c-1.21.05-1.6.07-4.69.07s-3.48-.02-4.69-.07a8.477,8.477,0,0,1-2.76-.53,5.849,5.849,0,0,1-3.33-3.33,8.6,8.6,0,0,1-.53-2.77c-.05-1.21-.07-1.6-.07-4.7s.02-3.48.07-4.7a8.478,8.478,0,0,1,.53-2.76,5.573,5.573,0,0,1,1.31-2.02,5.658,5.658,0,0,1,2.02-1.31A8.22,8.22,0,0,1,1044.31,2252.17Zm9.29,2.05c-1.2-.06-1.56-.07-4.6-.07s-3.4.01-4.6.07a6.152,6.152,0,0,0-2.11.39,3.576,3.576,0,0,0-1.31.85,3.707,3.707,0,0,0-.85,1.31,6.494,6.494,0,0,0-.39,2.12c-.05,1.2-.07,1.56-.07,4.6s.02,3.41.07,4.61a6.416,6.416,0,0,0,.39,2.11,3.705,3.705,0,0,0,.85,1.31,3.456,3.456,0,0,0,1.31.85,6.093,6.093,0,0,0,2.11.4c1.2.05,1.56.06,4.6.06s3.4-.01,4.6-.06a6.093,6.093,0,0,0,2.11-.4,3.456,3.456,0,0,0,1.31-.85,3.705,3.705,0,0,0,.85-1.31,6.416,6.416,0,0,0,.39-2.11c.05-1.2.07-1.57.07-4.61s-.02-3.4-.07-4.6a6.494,6.494,0,0,0-.39-2.12,3.707,3.707,0,0,0-.85-1.31,3.576,3.576,0,0,0-1.31-.85A6.152,6.152,0,0,0,1053.6,2254.22Z" fill="#000b13" fill-rule="evenodd"/>
  </g>
</svg>
