<svg xmlns="http://www.w3.org/2000/svg" width="21.002" height="22.24" viewBox="0 0 21.002 22.24">
  <g id="Group_1579" data-name="Group 1579" transform="translate(-1370.241 -2252.97)">
    <path id="Path_10985" data-name="Path 10985" d="M1371.75,2275.21c.09-.04.18-.08.29-.14l13.41-7.34-3.18-3.17Z" fill="#000b13"/>
    <path id="Path_10986" data-name="Path 10986" d="M1386.04,2267.42l-3.31-3.32,3.31-3.34,4.56,2.49c1.12.61.55,1.37,0,1.68Z" fill="#000b13"/>
    <path id="Path_10987" data-name="Path 10987" d="M1385.45,2260.44l-13.41-7.31a1.515,1.515,0,0,0-.48-.16l10.69,10.68Z" fill="#000b13"/>
    <path id="Path_10988" data-name="Path 10988" d="M1370.78,2253.11l11.03,11.01-10.96,11.09a2.271,2.271,0,0,1-.6-1.59c-.02-1.09,0-18.03,0-19.33A1.3,1.3,0,0,1,1370.78,2253.11Z" fill="#000b13"/>
  </g>
</svg>
