<svg xmlns="http://www.w3.org/2000/svg" width="22.75" height="20.95" viewBox="0 0 22.75 20.95">
  <path id="Path_10982" data-name="Path 10982" d="M1236.44,2269.64h.96a.257.257,0,0,0,.27-.27v-6.21c0-5.05,3.84-8.32,9.32-8.32s9.32,3.27,9.32,8.32v6.21a.257.257,0,0,0,.27.27h.96a.755.755,0,0,0,.82-.75v-6.22c0-5.88-4.67-9.85-10.99-9.85h-.77c-6.31,0-10.99,3.97-10.99,9.85v6.22A.764.764,0,0,0,1236.44,2269.64Zm3.49,4.13h1.27a1.819,1.819,0,0,0,2.04-1.93v-4.89a1.812,1.812,0,0,0-2.04-1.92h-1.27a1.007,1.007,0,0,0-1.13,1.09v6.56A1.011,1.011,0,0,0,1239.93,2273.77Zm12.86,0h1.27a1.019,1.019,0,0,0,1.14-1.09v-6.56a1.01,1.01,0,0,0-1.14-1.09h-1.27a1.812,1.812,0,0,0-2.04,1.92v4.89A1.819,1.819,0,0,0,1252.79,2273.77Z" transform="translate(-1235.61 -2252.82)" fill="#000b13"/>
</svg>
