<svg xmlns="http://www.w3.org/2000/svg" width="22.75" height="18.97" viewBox="0 0 22.75 18.97">
  <path id="Path_10976" data-name="Path 10976" d="M994.375,2256.97a8.975,8.975,0,0,1-2.68.75,4.766,4.766,0,0,0,2.052-2.65,9.055,9.055,0,0,1-2.965,1.16,4.6,4.6,0,0,0-3.407-1.51,4.733,4.733,0,0,0-4.665,4.79,4.857,4.857,0,0,0,.12,1.09,13.135,13.135,0,0,1-9.621-5,4.869,4.869,0,0,0-.632,2.41,4.812,4.812,0,0,0,2.077,3.98,4.614,4.614,0,0,1-2.116-.59v.06a4.756,4.756,0,0,0,3.746,4.69,4.534,4.534,0,0,1-1.23.17,4.259,4.259,0,0,1-.879-.09,4.686,4.686,0,0,0,4.36,3.33,9.24,9.24,0,0,1-5.8,2.05,8.2,8.2,0,0,1-1.114-.07,12.963,12.963,0,0,0,7.155,2.15c8.586,0,13.28-7.29,13.28-13.62,0-.21,0-.42-.012-.62A9.673,9.673,0,0,0,994.375,2256.97Z" transform="translate(-971.625 -2254.72)" fill="#000b13" fill-rule="evenodd"/>
</svg>
