<svg xmlns="http://www.w3.org/2000/svg" width="24.5" height="17.36" viewBox="0 0 24.5 17.36">
  <path id="Path_10981" data-name="Path 10981" d="M1178.47,2267.48v-6.93l6.62,3.48Zm14.53-8.14a5.28,5.28,0,0,0-.97-2.45,3.489,3.489,0,0,0-2.45-1.04c-3.43-.25-8.57-.25-8.57-.25h-.02s-5.14,0-8.57.25a3.489,3.489,0,0,0-2.45,1.04,5.338,5.338,0,0,0-.98,2.45,38.477,38.477,0,0,0-.24,4v1.87a38.477,38.477,0,0,0,.24,4,5.337,5.337,0,0,0,.98,2.45,4.187,4.187,0,0,0,2.7,1.06c1.96.19,8.33.24,8.33.24s5.15,0,8.58-.25a3.513,3.513,0,0,0,2.45-1.05,5.28,5.28,0,0,0,.97-2.45,36.96,36.96,0,0,0,.25-4v-1.87A36.96,36.96,0,0,0,1193,2259.34Z" transform="translate(-1168.75 -2255.6)" fill="#000b13" fill-rule="evenodd"/>
</svg>
