<svg xmlns="http://www.w3.org/2000/svg" width="98.01" height="71" viewBox="0 0 98.01 71">
  <g id="Group_1164" data-name="Group 1164" transform="translate(-201 -2227.47)">
    <path id="Path_10944" data-name="Path 10944" d="M251.81,2268.46c-6.2,10.65-14.79,17.3-21.173,20.11l-.061,1.12,8.849,3.91,1.865-.32a60.775,60.775,0,0,0,20.015-24.82Z" fill="#ed1c24"/>
    <path id="Path_10945" data-name="Path 10945" d="M231.839,2227.47a79.441,79.441,0,0,0-27.788,4.93l-.3.57a51.709,51.709,0,0,1,2.99,14.04,52.845,52.845,0,0,1-1.724,16.43l-.04.16.069.15a48.913,48.913,0,0,0,2.686,4.99,48.251,48.251,0,0,0,3.243,4.62,51.639,51.639,0,0,0,3.78,4.26,55.849,55.849,0,0,0,4.3,3.91c1.506,1.23,3.123,2.43,4.806,3.56s3.449,2.2,5.292,3.21c.319.17.639.35.963.52l.513-.02.012-.23c.392-.17.792-.36,1.2-.56-7.424-3.67-17.254-12.15-23.061-25.69,2.453-9.46,2.9-17.62,1.391-25.93a74.646,74.646,0,0,1,21.67-3.17,73.333,73.333,0,0,1,29.121,5.9,54.527,54.527,0,0,1,1.453-5.62A79.025,79.025,0,0,0,231.839,2227.47Z" fill="#0072bc"/>
    <path id="Path_10946" data-name="Path 10946" d="M241.288,2293.28c-17.09-6.33-29.482-16.07-35.824-29.73,3.163-12.87,1.944-20.93-1.413-31.15-.941.35-1.87.72-2.787,1.1,3.281,10.42,3.139,19.86-.264,31.58,5.581,15.04,17.371,28,30.839,33.39A46.015,46.015,0,0,0,241.288,2293.28Z" fill="#ffc20e"/>
    <path id="Path_10947" data-name="Path 10947" d="M226.483,2254.96v.12c3.519.34,5.1,2.01,5.093,4.84,0,3.15-1.743,5.02-6.611,5.02h-7.513a1.13,1.13,0,0,1-.8-.33,1.144,1.144,0,0,1-.329-.8v-14.57c0-1.61-.48-1.98-1.8-1.98v-2.07h9.85c3.6,0,6.529,1.64,6.529,5.35C230.9,2253.49,228.99,2254.62,226.483,2254.96Zm-3.88-7.5h-1.125l0,6.48h1.235c1.97,0,2.7-.53,2.7-3.25C225.418,2248.28,224.6,2247.46,222.6,2247.46Zm-1.127,15.38h1.66c2.055,0,3.039-.62,3.04-3.34,0-2.41-.9-3.37-2.843-3.37h-1.857Z" fill="#000b13" fill-rule="evenodd"/>
    <path id="Path_10948" data-name="Path 10948" d="M249.457,2250.77l-.274-4.52h0a1.124,1.124,0,0,0-1.122-1.06H233.883a1.129,1.129,0,0,0-1.122,1.06l-.275,4.52h2.449l.052-.2c.578-2.28.788-3.11,2.594-3.11h.814v17.48h5.151v-17.48h.815c1.808,0,2.018.83,2.6,3.11l.05.2Z" fill="#000b13"/>
    <path id="Path_10949" data-name="Path 10949" d="M260.6,2263.7c-1.642-.05-2.065-.52-2.065-2.05v-4.25h2.692c5.444,0,7-3.02,7-6.16,0-4.14-2.58-6.06-7.059-6.06h-9.014v1.37c1.474.03,1.927.43,1.927,2.06v13.07c0,1.63-.453,2.03-1.927,2.03v1.31h8.788v-1.31C260.821,2263.71,260.706,2263.7,260.6,2263.7Zm2.9-12.41c0,3.08-.823,4-3.062,4h-1.9v-8.08H260.2C262.668,2247.21,263.493,2248.29,263.493,2251.29Z" fill="#000b13" fill-rule="evenodd"/>
    <path id="Path_10950" data-name="Path 10950" d="M283.733,2264.51h0v-1.23c-.188-.01-.357-.02-.51-.04-1.066-.13-1.306-.63-1.306-2.5,0-1.65.046-3.21.08-4.35.019-.65.035-1.16.035-1.47,0-3.34-2.269-4.8-5.528-4.8a12.727,12.727,0,0,0-6.124,1.6v2.91h3.12c.2-1.51.652-2.6,2.267-2.6,1.5,0,2.039.94,2.039,3.14v1.31c-.371-.02-1.019-.05-1.359-.05-4.451,0-6.973,1.4-6.973,4.76,0,2.94,1.984,4.23,4.506,4.23a4.118,4.118,0,0,0,3.941-2.23c.226,1.2,1.162,2,2.92,2A5.767,5.767,0,0,0,283.733,2264.51Zm-9.925-3.85c0-1.75,1.021-2.57,2.949-2.57h.992l-.086,3.62a2.9,2.9,0,0,1-2.153,1.06C274.432,2262.77,273.808,2262.28,273.808,2260.66Z" fill="#000b13" fill-rule="evenodd"/>
    <path id="Path_10951" data-name="Path 10951" d="M290.677,2264.79c-.991,2.29-3.033,2.94-5.528,3.4l1.415,2.74c3.374-.49,5.131-2.63,6.351-6l4.11-11.36c.511-1.37.85-1.63,1.985-1.77v-1.31h-5.924v1.31c1.3.06,1.73.2,1.73.83a1.974,1.974,0,0,1-.114.63l-1.927,6.22c-.312,1.03-.538,2.03-.6,2.31h-.142a16.539,16.539,0,0,0-.568-2.45l-1.955-6.08a2.028,2.028,0,0,1-.171-.69c0-.48.4-.71,1.7-.77v-1.31h-7.682v1.31c1.048.15,1.332.49,1.815,1.83l2.182,6.05a43.742,43.742,0,0,1,1.673,5.25Z" fill="#000b13"/>
  </g>
</svg>
