<svg xmlns="http://www.w3.org/2000/svg" width="24" height="18" viewBox="0 0 24 18">
  <g id="Group_1577" data-name="Group 1577" transform="translate(-85 -74.529)">
    <path id="Path_12890" data-name="Path 12890" d="M85,76.529a2,2,0,0,1,2-2h20a2,2,0,0,1,0,4H87A2,2,0,0,1,85,76.529Z" fill="#fff"/>
    <path id="Path_12891" data-name="Path 12891" d="M85,83.529a2,2,0,0,1,2-2h20a2,2,0,0,1,0,4H87A2,2,0,0,1,85,83.529Z" fill="#fff"/>
    <path id="Path_12892" data-name="Path 12892" d="M85,90.529a2,2,0,0,1,2-2h20a2,2,0,0,1,0,4H87A2,2,0,0,1,85,90.529Z" fill="#fff"/>
  </g>
</svg>
