<svg xmlns="http://www.w3.org/2000/svg" width="67.247" height="76.875" viewBox="0 0 67.247 76.875">
  <path id="Logo_BT" data-name="Logo BT" d="M209.916,160.783v-.123c2.731-.368,4.817-1.6,4.817-4.786,0-4.019-3.191-5.8-7.118-5.8H196.877v2.24c1.442,0,1.963.4,1.963,2.148v15.77a1.227,1.227,0,0,0,1.228,1.227h8.192c5.308,0,7.21-2.025,7.21-5.431C215.469,162.962,213.751,161.152,209.916,160.783Zm-5.461-8.253h1.227c2.179,0,3.068.89,3.068,3.5,0,2.945-.8,3.528-2.945,3.528h-1.35Zm1.81,16.66h-1.81v-7.271h2.025c2.117,0,3.1,1.043,3.1,3.651C209.579,168.515,208.505,169.19,206.265,169.19Zm28.4-17.962.3,4.892h-2.669c-.675-2.638-.859-3.589-2.884-3.589h-.89v18.93H222.9v-18.93h-.89c-2.025,0-2.209.951-2.884,3.589h-2.669l.3-4.892a1.227,1.227,0,0,1,1.225-1.153h15.455A1.227,1.227,0,0,1,234.662,151.228Zm14.715,20.39a66.235,66.235,0,0,1-23.08,30.36,89.121,89.121,0,0,1-10.334-4.556c8.481-4.086,19.39-13.5,25.831-28.411l.134-.31-.085-.326c-2.473-9.479-3.039-17.822-1.759-26.106a62.3,62.3,0,0,1,7.036,2.518l.137.059C245.763,153.381,246.494,161.758,249.377,171.618Zm-62.991-35.7c3.7,11.182,5.059,19.912,1.646,33.933,5.016,10.542,13.662,19.612,25.776,26.4l.244-.107c.2-.088.4-.181.607-.276-7.943-4.241-18-13.247-24.048-27.251,2.673-10.245,3.157-19.077,1.515-28.078a81.87,81.87,0,0,1,22.648-3.42v-.009h1.075q.772,0,1.539.016c11.461.168,21.63,2.1,30.248,5.751.386-1.8.865-3.619,1.45-5.463a88.578,88.578,0,0,0-62.709-1.523Zm-.274,34.451-.147-.313.083-.337c3.4-13.731,2.093-22.249-1.507-33.144-.713.273-1.421.553-2.122.844,3.575,11.277,3.421,21.508-.289,34.2,6.086,16.284,18.939,30.309,33.624,36.153a49.657,49.657,0,0,0,8.558-4.451C205.589,196.108,192.739,184.547,186.112,170.371Z" transform="translate(-182.13 -130.896)" fill="#fff"/>
</svg>
