<svg xmlns="http://www.w3.org/2000/svg" width="21" height="21" viewBox="0 0 21 21">
  <path id="Path_12889" data-name="Path 12889" d="M-3.5,89.529a2,2,0,0,0-2,2v1a2,2,0,0,0,2,2h1a2,2,0,0,0,2-2v-1a2,2,0,0,0-2-2Zm-2-6a2,2,0,0,1,2-2h1a2,2,0,0,1,2,2v1a2,2,0,0,1-2,2h-1a2,2,0,0,1-2-2Zm2-10a2,2,0,0,0-2,2v1a2,2,0,0,0,2,2h1a2,2,0,0,0,2-2v-1a2,2,0,0,0-2-2Zm-10,18a2,2,0,0,1,2-2h1a2,2,0,0,1,2,2v1a2,2,0,0,1-2,2h-1a2,2,0,0,1-2-2Zm2-10a2,2,0,0,0-2,2v1a2,2,0,0,0,2,2h1a2,2,0,0,0,2-2v-1a2,2,0,0,0-2-2Zm-2-6a2,2,0,0,1,2-2h1a2,2,0,0,1,2,2v1a2,2,0,0,1-2,2h-1a2,2,0,0,1-2-2Zm-6,14a2,2,0,0,0-2,2v1a2,2,0,0,0,2,2h1a2,2,0,0,0,2-2v-1a2,2,0,0,0-2-2Zm-2-6a2,2,0,0,1,2-2h1a2,2,0,0,1,2,2v1a2,2,0,0,1-2,2h-1a2,2,0,0,1-2-2Zm0-8a2,2,0,0,1,2-2h1a2,2,0,0,1,2,2v1a2,2,0,0,1-2,2h-1a2,2,0,0,1-2-2Z" transform="translate(21.5 -73.529)" fill="#fff" fill-rule="evenodd"/>
</svg>
