<svg xmlns="http://www.w3.org/2000/svg" xmlns:xlink="http://www.w3.org/1999/xlink" width="336" height="63.529" viewBox="0 0 336 63.529">
  <defs>
    <clipPath id="clip-path">
      <rect id="Rectangle_8" data-name="Rectangle 8" width="336" height="63.529" transform="translate(339.01 2231.21)" fill="none"/>
    </clipPath>
  </defs>
  <g id="Group_19" data-name="Group 19" transform="translate(-339.01 -2231.21)" clip-path="url(#clip-path)">
    <g id="Group_18" data-name="Group 18">
      <path id="Path_10952" data-name="Path 10952" d="M488.645,2231.21H349.375a10.363,10.363,0,0,0-10.365,10.36v42.8a10.365,10.365,0,0,0,10.365,10.37h139.27a10.366,10.366,0,0,0,10.365-10.37v-42.8A10.364,10.364,0,0,0,488.645,2231.21Z" fill="#fafafa"/>
      <path id="Path_10953" data-name="Path 10953" d="M379.351,2262.55a6.763,6.763,0,0,1,3.188-5.68,6.926,6.926,0,0,0-5.47-2.96c-2.353-.24-4.53,1.37-5.694,1.37s-3-1.34-4.941-1.31a7.287,7.287,0,0,0-6.13,3.73c-2.647,4.59-.67,11.33,1.871,15.04,1.27,1.81,2.753,3.83,4.706,3.76s2.6-1.17,4.894-1.17,2.941,1.17,4.917,1.17,3.318-1.82,4.553-3.64a15.236,15.236,0,0,0,2.071-4.24A6.548,6.548,0,0,1,379.351,2262.55Zm-3.741-11.08a6.676,6.676,0,0,0,1.518-4.78,6.809,6.809,0,0,0-4.389,2.27,6.342,6.342,0,0,0-1.564,4.6A5.608,5.608,0,0,0,375.61,2251.47Zm24.282,20.32H394.3l-1.341,3.94H390.61l5.271-14.6h2.447l5.282,14.6h-2.353Zm-4.988-1.83h4.412l-2.177-6.41Zm20.118.45c0,3.3-1.777,5.43-4.447,5.43a3.615,3.615,0,0,1-3.33-1.87v5.29h-2.259v-14.18H407.1v1.78a3.771,3.771,0,0,1,3.4-1.89C413.234,2264.97,415.022,2267.1,415.022,2270.41Zm-2.247,0c0-2.17-1.177-3.53-2.812-3.53s-2.8,1.45-2.8,3.53,1.176,3.53,2.8,3.53S412.775,2272.59,412.775,2270.41Zm13.964,0c0,3.3-1.764,5.43-4.435,5.43a3.6,3.6,0,0,1-3.294-1.87v5.29h-2.294v-14.18h2.106v1.78a3.776,3.776,0,0,1,3.388-1.89C424.963,2264.97,426.739,2267.1,426.739,2270.41Zm-2.247,0c0-2.17-1.106-3.53-2.811-3.53s-2.789,1.45-2.789,3.53,1.118,3.53,2.789,3.53S424.492,2272.59,424.492,2270.41Zm10,1.25c.165,1.45,1.565,2.35,3.53,2.35s3.164-.94,3.164-2.25-.8-1.82-2.694-2.28l-1.894-.46c-2.682-.65-3.929-1.91-3.929-3.94,0-2.52,2.2-4.25,5.317-4.25s5.212,1.73,5.283,4.25h-2.247c-.13-1.46-1.341-2.35-3.094-2.35s-2.977.88-2.977,2.17c0,1.04.777,1.65,2.659,2.11l1.612.4c3,.7,4.235,1.92,4.235,4.05,0,2.74-2.176,4.44-5.635,4.44-3.236,0-5.424-1.67-5.565-4.31Zm13.694-9.1v2.52h2.024v1.73h-2.024v5.88c0,.92.4,1.34,1.295,1.34h.717v1.72a6.626,6.626,0,0,1-1.176.11c-2.165,0-3-.82-3-2.89v-6.16h-1.588v-1.73h1.552v-2.52Zm3.189,7.85c0-3.35,1.976-5.46,5.059-5.46s5.047,2.11,5.047,5.46-1.953,5.5-5.047,5.5S451.375,2273.76,451.375,2270.41Zm7.882,0c0-2.35-1.059-3.66-2.823-3.66s-2.824,1.36-2.824,3.66,1.047,3.65,2.824,3.65S459.257,2272.71,459.257,2270.41Zm4.024-5.33h2.094v1.81a2.557,2.557,0,0,1,2.564-1.92,4.6,4.6,0,0,1,.742.07v2.05a3.223,3.223,0,0,0-.977-.13,2.2,2.2,0,0,0-2.282,2.45v6.32h-2.188Zm15.529,7.52c-.294,1.94-2.176,3.27-4.588,3.27-3.094,0-5.012-2.08-5.012-5.41s1.929-5.51,4.929-5.51,4.8,2.02,4.8,5.25v.75H471.41v.13a2.771,2.771,0,0,0,2.894,3.02,2.351,2.351,0,0,0,2.459-1.5Zm-7.388-3.18h5.329a2.581,2.581,0,0,0-2.612-2.71,2.7,2.7,0,0,0-2.717,2.71Zm-76.788-19.29a3.09,3.09,0,0,1,3.294,3.53c0,2.24-1.177,3.53-3.294,3.53h-2.542v-7.06Zm-1.448,6.02H394.5a2.693,2.693,0,0,0,1.779-4.34,2.242,2.242,0,0,0-1.779-.7h-1.318Zm10.718-.44a2.137,2.137,0,0,1-2.294,1.53,2.341,2.341,0,0,1-1.877-.77,2.367,2.367,0,0,1-.57-1.96,2.453,2.453,0,0,1,2.447-2.76c1.471,0,2.353,1,2.353,2.67v.32h-3.777v.06a1.393,1.393,0,0,0,.362,1.07,1.364,1.364,0,0,0,1.038.44,1.287,1.287,0,0,0,1.271-.64Zm-3.718-1.7h2.671a1.284,1.284,0,0,0-1.306-1.38,1.353,1.353,0,0,0-1.365,1.38Zm7.118-2.26c1.177,0,1.977.55,2.082,1.48h-.964c-.094-.39-.471-.63-1.071-.63s-1.023.27-1.023.69.27.51.847.65l.882.2c1,.23,1.471.67,1.471,1.45,0,1-.93,1.65-2.189,1.65s-2.082-.56-2.176-1.5h1.047c.129.41.518.66,1.176.66s1.118-.3,1.118-.72-.259-.52-.788-.64l-.918-.22c-1.012-.23-1.47-.68-1.47-1.47A1.789,1.789,0,0,1,407.3,2251.75Zm7.059,1.81a1.178,1.178,0,0,0-1.235-.88c-.871,0-1.4.67-1.4,1.8s.529,1.83,1.4,1.83a1.166,1.166,0,0,0,1.258-.87H415.4a2.067,2.067,0,0,1-2.27,1.8,2.419,2.419,0,0,1-2.483-2.76,2.348,2.348,0,0,1,2.483-2.73,2.078,2.078,0,0,1,2.247,1.81Zm2.047,2.08c0-.95.718-1.5,1.976-1.57l1.436-.08v-.43c0-.56-.377-.88-1.083-.88s-.988.22-1.105.6h-.977c.106-.92.965-1.49,2.165-1.49s2.035.6,2.035,1.77v3.63h-1v-.76h-.082a1.794,1.794,0,0,1-1.589.84,1.645,1.645,0,0,1-1.252-.42A1.611,1.611,0,0,1,416.41,2255.64Zm1.424-6.16a.988.988,0,1,0,1.976,0h.847a1.847,1.847,0,0,1-3.671,0Zm2.035,5.72v-.46l-1.294.08c-.73,0-1.059.29-1.059.77s.412.75.976.75a1.245,1.245,0,0,0,1.33-1.14Zm2.67-3.36h1v.82h.083a1.432,1.432,0,0,1,1.423-.9,1.854,1.854,0,0,1,.471,0v1.03a2.909,2.909,0,0,0-.588-.06,1.2,1.2,0,0,0-.955.32,1.225,1.225,0,0,0-.4.92v3.13h-1.036Zm7.424,1.72a1.18,1.18,0,0,0-1.247-.89c-.871,0-1.412.67-1.412,1.8s.541,1.83,1.412,1.83a1.166,1.166,0,0,0,1.247-.87h1.023a2.065,2.065,0,0,1-2.258,1.8,2.431,2.431,0,0,1-2.494-2.76,2.415,2.415,0,0,1,2.482-2.73,2.087,2.087,0,0,1,2.27,1.82Zm2.059,2.08c0-.95.706-1.5,1.976-1.57l1.483-.08v-.43c0-.56-.377-.88-1.1-.88s-.988.22-1.1.6h-1.012c.117-.92.965-1.49,2.165-1.49s2.035.6,2.035,1.77v3.63h-.988v-.76H435.4a1.768,1.768,0,0,1-1.588.84,1.608,1.608,0,0,1-1.788-1.63Zm3.412-.44v-.46l-1.295.08c-.729,0-1.07.29-1.07.77s.423.75.988.75a1.246,1.246,0,0,0,1.424-1.14Zm4.082-2.45v2.73c0,.55.235.8.753.8a2.668,2.668,0,0,0,.4,0v.81a5.319,5.319,0,0,1-.565,0h-.235l-.224.57c.647,0,1.012.3,1.012.82s-.447.95-1.176.95a2.9,2.9,0,0,1-.718-.08v-.59a2.334,2.334,0,0,0,.588.07c.365,0,.565-.12.565-.33s-.2-.29-.694-.29h-.33v-.47l.318-.78c-.518-.19-.741-.6-.741-1.3v-2.91h-.835v-.88h.835v-1.34h1.047v1.34h1.176v.88Zm2.4-2.47a.622.622,0,0,1,.2-.46.656.656,0,0,1,1.108.46.653.653,0,0,1-1.306,0Zm.153,1.56H443.1v5.31h-1.035Zm5.341,2.65c0-1.67.859-2.73,2.2-2.73a1.747,1.747,0,0,1,1.624.93h.07v-2.92h1.047v7.38h-1v-.85h-.082a1.81,1.81,0,0,1-1.659.93C448.257,2257.23,447.41,2256.17,447.41,2254.49Zm1.082,0c0,1.18.53,1.8,1.412,1.8s1.424-.68,1.424-1.79-.553-1.8-1.424-1.8S448.492,2253.37,448.492,2254.49Zm10.059,1.22a2.133,2.133,0,0,1-2.353,1.53,2.341,2.341,0,0,1-1.877-.77,2.367,2.367,0,0,1-.57-1.96,2.441,2.441,0,0,1,2.435-2.76c1.483,0,2.353,1,2.353,2.67v.32h-3.67v.06a1.4,1.4,0,0,0,.37,1.07,1.372,1.372,0,0,0,1.042.44,1.265,1.265,0,0,0,1.258-.64Zm-3.682-1.7h2.682a1.283,1.283,0,0,0-1.306-1.38,1.364,1.364,0,0,0-1.376,1.38Zm12.965.48c0,1.68-.848,2.74-2.189,2.74a1.7,1.7,0,0,1-1.623-.89h-.083v2.56h-1.047v-7.06h1v.89h.083a1.825,1.825,0,0,1,1.659-.97C466.986,2251.76,467.834,2252.81,467.834,2254.49Zm-1.071,0c0-1.12-.529-1.79-1.412-1.79s-1.435.69-1.435,1.8.553,1.79,1.423,1.79S466.763,2255.62,466.763,2254.49Zm6.953,1.22a2.133,2.133,0,0,1-2.353,1.53,2.341,2.341,0,0,1-1.877-.77,2.367,2.367,0,0,1-.57-1.96,2.453,2.453,0,0,1,2.447-2.76c1.471,0,2.353,1,2.353,2.67v.32h-3.741v.06a1.4,1.4,0,0,0,.37,1.07,1.372,1.372,0,0,0,1.041.44,1.268,1.268,0,0,0,1.259-.64Zm-3.671-1.7h2.671a1.284,1.284,0,0,0-1.306-1.38,1.376,1.376,0,0,0-1.365,1.38Z" fill="#000b13"/>
      <path id="Path_10954" data-name="Path 10954" d="M664.645,2231.21H525.375a10.363,10.363,0,0,0-10.365,10.36v42.8a10.365,10.365,0,0,0,10.365,10.37h139.27a10.366,10.366,0,0,0,10.365-10.37v-42.8A10.364,10.364,0,0,0,664.645,2231.21Z" fill="#fafafa"/>
      <path id="Path_10955" data-name="Path 10955" d="M593.527,2265.72a5.007,5.007,0,1,0,5.012,5,4.956,4.956,0,0,0-1.447-3.57A4.9,4.9,0,0,0,593.527,2265.72Zm.159,8.03a3.033,3.033,0,1,1,2.824-3.03,2.891,2.891,0,0,1-2.824,3.03Z" fill="#000b13" fill-rule="evenodd"/>
      <path id="Path_10956" data-name="Path 10956" d="M563.551,2253.62h2.8l.682,1.92h1.259l-2.694-7.3h-1.176l-2.753,7.3h1.258Zm1.4-3.86,1,2.78h-2.012Z" fill="#000b13" fill-rule="evenodd"/>
      <path id="Path_10957" data-name="Path 10957" d="M572.269,2255.69a3.7,3.7,0,0,0,1.635-.35,3.642,3.642,0,0,0,1.259-.94l.07-.1-.8-.74-.082.1a2.7,2.7,0,0,1-2.082.98,2.5,2.5,0,0,1-1.859-.75,2.862,2.862,0,0,1,0-3.9,2.548,2.548,0,0,1,1.859-.76,2.263,2.263,0,0,1,1.87.86l.083.1.8-.78-.012-.13a3.4,3.4,0,0,0-2.683-1.18,3.816,3.816,0,1,0,0,7.62Z" fill="#000b13"/>
      <path id="Path_10958" data-name="Path 10958" d="M580.786,2254.89a3,3,0,0,0,.73-2.09v-4.56h-1.177v4.59a1.949,1.949,0,0,1-.412,1.29,1.682,1.682,0,0,1-2.353,0,1.948,1.948,0,0,1-.411-1.29v-4.59h-1.177v4.56a2.951,2.951,0,0,0,.753,2.09,2.865,2.865,0,0,0,3.977,0Z" fill="#000b13"/>
      <path id="Path_10959" data-name="Path 10959" d="M530.953,2278.04a2.088,2.088,0,0,0,.376-.18l17.387-9.52-4.124-4.1Z" fill="#000b13"/>
      <path id="Path_10960" data-name="Path 10960" d="M549.489,2267.94l-4.3-4.3,4.3-4.34,5.908,3.23c1.448.8.714,1.79,0,2.18Z" fill="#000b13"/>
      <path id="Path_10961" data-name="Path 10961" d="M548.716,2258.88l-17.387-9.47a2.019,2.019,0,0,0-.614-.2l13.858,13.84Z" fill="#000b13"/>
      <path id="Path_10962" data-name="Path 10962" d="M529.7,2249.39,544,2263.66l-14.215,14.38a1.784,1.784,0,0,1-.634-1.57c-.02-1.41-.139-23.87-.139-25.56A1.658,1.658,0,0,1,529.7,2249.39Z" fill="#000b13"/>
      <path id="Path_10963" data-name="Path 10963" d="M646.774,2265.69a4.12,4.12,0,0,0-3.917,2.25l1.953.81a2.56,2.56,0,0,1,3.537-.62,2.092,2.092,0,0,1,.78,1.43v.16a4.789,4.789,0,0,0-2.282-.57c-2.106,0-4.235,1.18-4.235,3.32a3.387,3.387,0,0,0,3.647,3.23,3.092,3.092,0,0,0,2.8-1.44h.07v1.17h2.13v-5.67C651.233,2267.15,649.28,2265.69,646.774,2265.69Zm-.258,8.06c-.73,0-1.73-.36-1.73-1.25,0-1.17,1.247-1.57,2.353-1.57a3.882,3.882,0,0,1,2,.49,2.652,2.652,0,0,1-2.635,2.33Z" fill="#000b13" fill-rule="evenodd"/>
      <path id="Path_10964" data-name="Path 10964" d="M582.574,2265.72a5.01,5.01,0,1,0,5.024,5,4.921,4.921,0,0,0-5.024-5Zm.112,8.05a3.033,3.033,0,1,1,2.824-3.03,2.891,2.891,0,0,1-2.824,3.03Z" fill="#000b13" fill-rule="evenodd"/>
      <path id="Path_10965" data-name="Path 10965" d="M622.845,2268.86a4.643,4.643,0,0,0-9.012,1.86,4.909,4.909,0,0,0,4.977,5.01,5.015,5.015,0,0,0,4.164-2.17l-1.705-1.17a2.863,2.863,0,0,1-2.459,1.37,2.536,2.536,0,0,1-2.436-1.52l6.695-2.76Zm-6.823,1.67a2.741,2.741,0,0,1,2.611-2.85,1.933,1.933,0,0,1,1.859,1.07Z" fill="#000b13" fill-rule="evenodd"/>
      <path id="Path_10966" data-name="Path 10966" d="M656.434,2272.39l2.517-6.38h2.435l-6.035,13.87h-2.282l2.223-4.95-3.906-8.92h2.353l2.612,6.38Z" fill="#000b13"/>
      <path id="Path_10967" data-name="Path 10967" d="M569.539,2267.26v2.11h5.083a4.355,4.355,0,0,1-1.177,2.67,5.147,5.147,0,0,1-3.906,1.52,5.645,5.645,0,1,1,0-11.29,5.354,5.354,0,0,1,3.824,1.52l1.506-1.5a7.426,7.426,0,0,0-5.33-2.14,7.776,7.776,0,1,0,0,15.54,6.8,6.8,0,0,0,7.306-7.09,6.275,6.275,0,0,0-.118-1.32Z" fill="#000b13"/>
      <path id="Path_10968" data-name="Path 10968" d="M633.139,2260.72H627.88v14.7h2.2v-5.58h3.059a4.572,4.572,0,1,0,0-9.12Zm0,7.05H630.08v-5.01H633.2a2.52,2.52,0,0,1,0,5.04Z" fill="#000b13" fill-rule="evenodd"/>
      <path id="Path_10969" data-name="Path 10969" d="M610.575,2260.72h2.2v14.7h-2.2Z" fill="#000b13"/>
      <path id="Path_10970" data-name="Path 10970" d="M606.974,2266.83h-.07a3.527,3.527,0,0,0-2.635-1.17,5.011,5.011,0,0,0,0,10.01,3.413,3.413,0,0,0,2.635-1.18h.07v.72c0,1.92-1.023,2.94-2.67,2.94a2.771,2.771,0,0,1-2.518-1.78l-1.917.79a4.788,4.788,0,0,0,4.435,2.97c2.576,0,4.706-1.52,4.706-5.23v-8.88h-2.036Zm-2.552,6.92a3.035,3.035,0,1,1,0-6.07,2.815,2.815,0,0,1,2.705,3.06,2.8,2.8,0,0,1-2.705,3.01Z" fill="#000b13" fill-rule="evenodd"/>
      <path id="Path_10971" data-name="Path 10971" d="M639.175,2260.72h2.2v14.7h-2.2Z" fill="#000b13"/>
      <path id="Path_10972" data-name="Path 10972" d="M583.857,2250.44l.024.79v4.31h-1.142v-7.3h1.095l.035.06,2.376,4.16,2.4-4.22h1.094v7.3H588.6v-4.31l.024-.79-2.047,3.6H585.9l-.035-.05Z" fill="#000b13"/>
      <path id="Path_10973" data-name="Path 10973" d="M594.633,2252.68h1.377a2.352,2.352,0,0,0,1.635-.62,2.2,2.2,0,0,0,.7-1.6,2.172,2.172,0,0,0-.7-1.59,2.361,2.361,0,0,0-1.635-.63h-2.53v7.3h1.177Zm0-3.33h1.4a1.065,1.065,0,0,1,.824.34,1.093,1.093,0,0,1,0,1.54,1.07,1.07,0,0,1-.824.34h-1.4Z" fill="#000b13" fill-rule="evenodd"/>
      <path id="Path_10974" data-name="Path 10974" d="M600.386,2254.43H603.6v1.11h-4.353v-7.3H603.6v1.11h-3.212v2h2.9v1.08h-2.9Z" fill="#000b13"/>
    </g>
  </g>
</svg>
